<svg id="svg2" xmlns="http://www.w3.org/2000/svg" viewBox="0 0 318.1 55.3">
  <defs>
    <style>
      .cls-1 {
        fill: #ff6f00;
      }

      .cls-2 {
        fill: #414141;
      }
    </style>
  </defs>
  <g id="g10">
    <g id="g12">
      <path id="path14" class="cls-1" d="M23.8.1c0,.2.1.4-.1.5a.4.4,0,0,1-.4-.2c.1-.1,0-.3.2-.4h.3"/>
      <path id="path16" class="cls-1" d="M25.8,1.2c-.1.2-.1.4-.4.5l-.3-.2c-.1-.1-.1-.2-.1-.4s.1-.5.4-.6.3.4.4.7"/>
      <path id="path18" class="cls-1" d="M29.4,3.7c.3.4.2.8.3,1.2a1,1,0,0,1-.5.6c-.4.1-.8.1-.9.5s-.7.7-.7,1.2a8,8,0,0,1-1.3,1.9l-.8,1.2a4.1,4.1,0,0,0-.4,1.9c.2.5.3,1.1.5,1.6s.6.7.6,1.1a1.8,1.8,0,0,1-.3,1.6,2.8,2.8,0,0,0-.1.9c.8,1,.3,2.3.2,3.5s.6.8.3,1.3a10.1,10.1,0,0,0-.7,1.5c-.3.6.1,1.5-.6,1.9a5.7,5.7,0,0,0-.8,1.3A11.8,11.8,0,0,1,21.8,30a2.7,2.7,0,0,1-.7.8,9.8,9.8,0,0,1-3.6,2.5,6.9,6.9,0,0,1-3.7,1H13c-.1-.2-.5-.3-.3-.6a1.8,1.8,0,0,0-1-.2c-.3.2-.5,0-.8.2s0,.3.1.4-.6-.2-.8-.1a3.2,3.2,0,0,1-1.4-.2,9.1,9.1,0,0,1-2.1-1.5c-1.2-.9-1.2-2.5-1.9-3.8a4.2,4.2,0,0,1-.4-1.2c0-.2-.2-.3-.2-.5a6.5,6.5,0,0,1-.9-3c.1,0,.1-.1.1-.2a2.2,2.2,0,0,1,0-.8c0-.3-.1-.5,0-.7s0-.6-.1-.8-.1-.3,0-.5-.1-.2,0-.3.1.1.2,0h.2c.2-.3,0-.7.4-.9s0-.3.1-.4.2-.2.2-.3,0-.9-.1-1.4a7.3,7.3,0,0,1,.4-2.5L5.9,12A19.6,19.6,0,0,1,7.2,9.5a6.7,6.7,0,0,1,.9-1.4l.2-.2h.1c0,.2-.3.4-.1.5s.5-.9.9-1,.4-.2.4-.3.5-.7.2-1.1-.4-.4-.3-.6.2-.2.4-.2a.2.2,0,0,1,.2.2c.1.2-.2.4,0,.7s0,.6,0,.8-.2.6,0,.9h0a3.2,3.2,0,0,0,.1,1.4c.3.1.3.4.6.5a.2.2,0,0,0,.3.1l.5-.2a1.6,1.6,0,0,1-.2,1.2c-.1.1-.2.3-.1.4s.1.4.1.7a3.3,3.3,0,0,0,.6.8c.2-.3.5-.6.5-.9h.3c.2.3-.2.5-.3.7s-.3.5-.2.8.2.5.4.7.1.3.3.1h.3v.2c.3-.1.6-.2.7-.5s.1-.2.2-.3.5-.8.9-1.2.2-.2.2-.4,0-.4.1-.5a3.1,3.1,0,0,0,.1-1c0-.3.1-.7-.2-.9l-.5-.5c-.1-.3.1-.5.1-.7s.4-1.3,1-1.7a.3.3,0,0,1,.5.1c.2.3-.1.7,0,1.1s.4.8.1,1.2-.1,1-.2,1.5v.2h.2c.3-.3.4-.7.7-1a.4.4,0,0,0,.5-.1c.3-.3-.3-.8.2-1l.4.2a1.4,1.4,0,0,1-.2.6c0,.7-.5,1.9.4,2.3s.2,1.3.3,2.1.7.3.9.5.3-.4.5-.6.9-.9,1.5-1.1,1.3-.6,1.6-1.2l1.2-1.4c.2-.6.8-.7,1.2-1.1a9.3,9.3,0,0,1,1.1-1.9c.3-.4.3-.9.6-1.3s-.1-1.7.8-1.9.8-.2,1.1.1"/>
      <path id="path20" class="cls-1" d="M25.1,4.6c-.1.3,0,.6-.2.9h-.3V4.8c.1-.1.3-.5.5-.2"/>
      <path id="path22" class="cls-1" d="M18.7,4.9c.2.1.1.4,0,.6a.4.4,0,0,1-.4.3c-.3-.2.1-.6-.2-.8s.1-.2.3-.2.2.1.3.1"/>
      <path id="path24" class="cls-1" d="M22,5.7c-.2.4.1,1.2-.5,1.2s-.1-.8,0-1.1.4-.3.5-.1"/>
      <path id="path26" class="cls-1" d="M11.4,6.5c0,.2,0,.5-.2.6s-.4.1-.5-.1.2-.3.2-.5.4-.2.5,0"/>
      <path id="path28" class="cls-1" d="M18.4,7.2c0,.2,0,.4-.3.5s-.4.1-.4-.1a.7.7,0,0,1,.1-.5.3.3,0,0,1,.6.1"/>
      <path id="path30" class="cls-1" d="M13.3,9.3c-.1.2.1.6-.2.6s-.5,0-.6-.2a.7.7,0,0,1,.2-.6c.2.1.5,0,.6.2"/>
      <path id="path32" class="cls-1" d="M13.6,10.9c.1.1,0,.2-.1.3s-.4.2-.6.2a.6.6,0,0,1-.1-.4c0-.1.1-.3.2-.3s.6,0,.6.2"/>
      <path id="path34" class="cls-1" d="M20.1,41.3h0"/>
      <path id="path36" class="cls-1" d="M17.8,47.8h0c-.1,0-.1,0-.1.1h.1"/>
      <path id="path38" class="cls-1" d="M18.4,43.9c-.1.1,0,.1-.1.2a.1.1,0,0,1-.1.1h.2Zm.5-.7a.2.2,0,0,0-.2.2c0,.1-.2.1-.2.1v.2c.1.1.1,0,.1-.1s.2-.2.2-.2A.3.3,0,0,1,18.9,43.2Zm-1,2.1h0a.1.1,0,0,0-.1.1h.1c0,.1-.1.3,0,.3H18v-.3h-.1Zm-3.2,0c-.1.1,0,.1,0,.2a.1.1,0,0,0-.1.1v.3s0,.2.1.2v-.3a.4.4,0,0,0,.1-.3.3.3,0,0,0-.1-.2Zm-.4-1h-.1l.2.2v.3c0,.1-.1.1,0,.2h0v-.5Zm.6-.4v.2H15S15,43.9,14.9,43.9Zm-.4-.2c-.1.1-.1.4-.1.4v.2h0a.1.1,0,0,1,.1.1c0,.1-.1,0-.1.1v.5h.1c0-.1-.1-.2,0-.2h0a.5.5,0,0,1,.1.3h0c.1,0,0-.1,0-.1v-.2h0s-.1-.3,0-.3h0a1,1,0,0,1,.1-.3.1.1,0,0,1-.1-.1v-.2a.1.1,0,0,0-.1.1c.1,0,.1.1.1.2h-.1c0-.1,0,0-.1,0h0v-.4ZM1.7,43.1h0a.1.1,0,0,0,.1.1H1.7Zm.1-1.5h0Zm-.1-.5c-.1,0,0,0,0,.1a.3.3,0,0,0-.1.2.1.1,0,0,0,.1.1h0v-.2Zm.9-1ZM2.5,40H2.4c.1.1.1,0,.1,0Zm0-.3h0Zm-.7,2.7h0Zm0-1.1a.1.1,0,0,0,.1.1H1.8Zm.3.6h0Zm.2.5h0a.1.1,0,0,0,.1-.1h0S2.3,42.3,2.3,42.4Zm.4-3.2c-.1,0,0,.1,0,0h0c.1,0,.1-.1,0-.1ZM22.1,36l-.3.5c.1.1.2-.1.2-.1s-.2.3-.2.5-.2.2-.2.3-.1.2-.1.3a.3.3,0,0,0-.1.2c-.1,0-.1.2-.2.3v.2h-.1c-.1.1,0,.2.1.2s-.3.3-.2.4h0a.4.4,0,0,0-.1.3h0c-.1.2-.1.5-.3.6s-.2.3-.2.6,0,.2-.1.3v.2h0c-.1,0,0,.2-.1.3s-.2.1-.1.2h-.1a.3.3,0,0,0,0,.4v.2h-.2c-.1.1.1.2-.1.2a.1.1,0,0,0,0-.2c-.1.1-.1.3-.2.4h.1c-.1.1.1.4-.1.4s-.2.3-.1.5a.3.3,0,0,1-.1.2c-.2.1-.2.5-.3.6h-.1l.4-.7h0c-.1,0-.1.1-.1.2h0c-.3.1-.2.4-.4.5s-.1.2,0,.2h0c-.2,0-.1.1-.1.2v.4c-.1-.1-.1.1-.2.1a.4.4,0,0,1,.1.3c-.2,0-.2-.2-.1-.3s.1-.2,0-.4.1.5-.2.8.1.1,0,.3.1.3,0,.4H18c-.1,0,0,.2-.1.3s0-.1,0-.1a.9.9,0,0,0,0,.7h-.1c0,.1.1.1,0,.1h-.1c.1.1-.1.3.1.3h0c0,.2.1.2,0,.4h0c0-.1.1-.3-.1-.4a.3.3,0,0,0,0,.4h0c-.1,0-.1.1-.1.2v.8a.1.1,0,0,0-.1-.1c0,.1-.1.1-.1.2h.1a2.8,2.8,0,0,1-.1.9l-.2-.3c-.1.2.2.4,0,.5A9.9,9.9,0,0,1,16.1,53a.5.5,0,0,0-.2.4l-.7.6a1.5,1.5,0,0,1-.6.5h-.2l-.3.6c-.1,0-.2,0-.2.1a.1.1,0,0,1-.1-.1h-.2c0,.1-.1-.3-.2-.1h-.2c-.2-.1-.2-.4-.3-.6h0c-.2-.1-.1-.3-.2-.4a1.4,1.4,0,0,0-.5-.8,6,6,0,0,0-.6-1.1,12.7,12.7,0,0,0-.7-1.2,6.1,6.1,0,0,0-.7-1,15.4,15.4,0,0,0-4.3-4.5,4.6,4.6,0,0,0-1.5-.9c-.1-.1-.4-.2-.5-.1s-.1-.1-.2-.2H3.3c-.2,0-.2-.2-.3-.1s-.2-.3-.4-.2l-.5-.2-.3-.2c0-.2-.3-.2-.2-.3s-.1-.1-.2-.1.1,0,0-.1h.1a.2.2,0,0,0,0-.3c.2-.2.2.2.3,0h.3l-.4-.2c-.2.1-.1-.2-.3-.2h.1a.1.1,0,0,0,.1-.1c.1,0,.3.1.4,0h.2a.1.1,0,0,0-.1-.1H1.8c0-.1.1,0,.1-.1s-.5,0-.4-.3h.1c-.1.1-.1.1-.2,0h0a.1.1,0,0,0,.1-.1s-.1-.1,0-.1h.1c-.1-.1-.1-.1-.1-.2h.2c-.2,0-.1-.4-.3-.2s-.3,0-.3-.2h.3s.1-.1,0-.1h.7l-.5-.3h.1v-.2h.1l.4-.2s-.2,0-.1.1h.1c0-.1.1-.2,0-.3h.1c-.2-.1-.1-.2-.1-.3s.2-.1.1-.1h.1c.1-.2,0-.3.1-.5s.2.1.2,0,.2-.1.3.1h.2a.1.1,0,0,1,.1.1c.1-.1.2.1.3,0h.2c.1-.1.2.1.3-.1s0,.1.1.2h0a.4.4,0,0,0,.4.2h.1c0,.1.2.2.3.3s.2,0,.4.1h0c.1,0,.1.2.3.2s.2.1.2.1H6a.1.1,0,0,0,.1.1c.1.1.3,0,.3.2s.3.2.5.3.6.2.7.5h.1c.1.2.3.2.5.4h.1a7.7,7.7,0,0,1,1.5,1.6c.3.1.2.6.6.7s0-.3.1-.5.1-3.2,0-4.8-.2-1.2.3-1.6.2-.6.7-.6.2,0,.2-.2.2-.2.4,0,.1-.4.3-.2.8-.1,1.1.4h0c.2.2.4.5.7.4s.5.7.7,1,.2.3.3.6a3.6,3.6,0,0,1,.2,1v.2c.1.7-.1,1.2,0,1.8a4.3,4.3,0,0,1-.1.5h0a.6.6,0,0,0-.1.4c-.1.1,0,.2-.1.3v.2c-.1,0-.1,0-.1-.1v1H15c-.1,0,0,.1-.1.2H15a.1.1,0,0,1,.1-.1c0,.1-.2.4,0,.5s-.2.3-.2.5v.7h.1a19.4,19.4,0,0,1,3.2-5.8,13.3,13.3,0,0,1,3.4-3.3,5.8,5.8,0,0,0,1-1.2c0,.4-.5.6-.4,1"/>
      <path id="path40" class="cls-1" d="M.4,40.7h0"/>
      <path id="path42" class="cls-1" d="M.2,40.5h0"/>
      <path id="path44" class="cls-1" d="M1.5,39.5h0"/>
      <path id="path46" class="cls-1" d="M.9,39.7h0"/>
      <path id="path48" class="cls-1" d="M.1,42.2h0"/>
      <path id="path50" class="cls-1" d="M.8,39.8h0"/>
      <path id="path52" class="cls-1" d="M.5,40h0"/>
      <path id="path54" class="cls-1" d="M.1,41.8h0"/>
      <path id="path56" class="cls-1" d="M1.2,41.6h0"/>
      <path id="path58" class="cls-1" d="M.5,40.8h0"/>
      <path id="path60" class="cls-1" d="M1.6,39.5h0"/>
      <path id="path62" class="cls-1" d="M1,42.6H1"/>
      <path id="path64" class="cls-1" d="M.5,41.4h0"/>
      <path id="path66" class="cls-1" d="M.2,41.9h0"/>
      <path id="path68" class="cls-1" d="M2.3,39.3h0"/>
      <path id="path70" class="cls-1" d="M1.1,39.7h0"/>
      <path id="path72" class="cls-1" d="M.6,41.3h0"/>
      <path id="path74" class="cls-1" d="M.9,40.1h0"/>
      <path id="path76" class="cls-1" d="M.5,42.4h0"/>
      <path id="path78" class="cls-1" d="M1.4,41h0"/>
      <path id="path80" class="cls-1" d="M.6,41.7H.3a.1.1,0,0,0-.1.1H.6"/>
      <path id="path82" class="cls-1" d="M.6,40.5H.8c0,.1.1,0,.1,0H.6"/>
      <path id="path84" class="cls-1" d="M1.3,40H1.1v0h.1"/>
      <path id="path86" class="cls-1" d="M17.7,47.5h.1c0-.1,0-.1-.1-.1h0"/>
      <path id="path88" class="cls-1" d="M17.8,47.7h0"/>
      <path id="path90" class="cls-1" d="M19.5,42.4h0"/>
      <path id="path92" class="cls-1" d="M1.2,43h0"/>
      <path id="path94" class="cls-1" d="M1,42.9H1"/>
      <path id="path96" class="cls-1" d="M1.6,42.5h0"/>
      <path id="path98" class="cls-1" d="M1.4,42.5h0"/>
      <path id="path100" class="cls-1" d="M1,41.3H1"/>
      <path id="path102" class="cls-1" d="M1.4,41.3h0"/>
      <path id="path104" class="cls-1" d="M1.4,41.2h0"/>
      <path id="path106" class="cls-1" d="M1.3,41.2h0"/>
      <path id="path108" class="cls-1" d="M1.4,41.7h0"/>
      <path id="path110" class="cls-1" d="M1.7,40.2h0"/>
      <path id="path112" class="cls-1" d="M2.3,39.6h0"/>
      <path id="path114" class="cls-1" d="M2.1,39.6h0"/>
      <path id="path116" class="cls-1" d="M1.7,39.8h0"/>
      <path id="path118" class="cls-1" d="M1.7,39.7h0"/>
      <path id="path120" class="cls-1" d="M1,40.9H1"/>
      <path id="path122" class="cls-1" d="M.9,40.9h0"/>
      <path id="path124" class="cls-1" d="M1.6,40.1h0"/>
      <path id="path126" class="cls-1" d="M.8,41h0"/>
      <path id="path128" class="cls-1" d="M2,40H2"/>
      <path id="path130" class="cls-1" d="M1.6,40.1h0"/>
      <path id="path132" class="cls-1" d="M1.8,39.5h0"/>
      <path id="path134" class="cls-1" d="M1.5,39.7h0"/>
      <path id="path136" class="cls-1" d="M2.5,39.1h0"/>
      <path id="path138" class="cls-1" d="M1.9,39.6h0"/>
      <path id="path140" class="cls-1" d="M2,39.6H2"/>
      <path id="path142" class="cls-1" d="M2.2,39.4h0"/>
      <path id="path144" class="cls-1" d="M2,39.4H2"/>
      <path id="path146" class="cls-1" d="M1.5,40.3v-.2h.1"/>
      <path id="path148" class="cls-1" d="M1,40.6H1"/>
      <path id="path150" class="cls-1" d="M1.1,42.4h0"/>
      <path id="path152" class="cls-1" d="M1.6,42h0"/>
      <path id="path154" class="cls-1" d="M1.2,41.1h0"/>
      <path id="path156" class="cls-1" d="M1.7,41.9h0"/>
      <path id="path158" class="cls-1" d="M.9,41.4h0"/>
      <path id="path160" class="cls-1" d="M1.1,41.8h0"/>
      <path id="path162" class="cls-1" d="M1,41.9H1"/>
      <path id="path164" class="cls-1" d="M1.3,42.7h0"/>
      <path id="path166" class="cls-1" d="M.9,42.2h0"/>
      <path id="path168" class="cls-1" d="M.9,42.4h0"/>
      <path id="path170" class="cls-1" d="M.6,42h0"/>
      <path id="path172" class="cls-1" d="M1.3,42.4h0"/>
      <path id="path174" class="cls-1" d="M1.7,42.1h0"/>
      <path id="path176" class="cls-1" d="M.6,42.5h0"/>
      <path id="path178" class="cls-1" d="M1.2,41.6c.1,0,.2.1.3,0H1.2"/>
      <path id="path180" class="cls-1" d="M1.3,42.2h0"/>
      <path id="path182" class="cls-1" d="M1.5,43.2h0"/>
      <path id="path184" class="cls-1" d="M.7,42.6h0"/>
      <path id="path186" class="cls-1" d="M1.2,42.7h0"/>
      <path id="path188" class="cls-1" d="M1.3,43h0"/>
      <path id="path190" class="cls-1" d="M1.9,39.7h0"/>
      <path id="path192" class="cls-1" d="M1.2,42.8h0"/>
      <path id="path194" class="cls-1" d="M1.3,43.1h0"/>
      <path id="path196" class="cls-1" d="M1,39.9H1"/>
      <path id="path198" class="cls-1" d="M1.2,39.9h0"/>
      <path id="path200" class="cls-1" d="M1.3,40.2h0"/>
      <path id="path202" class="cls-1" d="M1.1,41.5h0"/>
      <path id="path204" class="cls-1" d="M1.6,41.8h0"/>
      <path id="path206" class="cls-1" d="M1.7,42.1h0"/>
      <path id="path208" class="cls-1" d="M1.2,42.2h0"/>
      <path id="path210" class="cls-1" d="M2.1,39.8h0"/>
      <path id="path212" class="cls-1" d="M2.3,39.2h0"/>
      <path id="path214" class="cls-1" d="M1.3,39.7h0"/>
      <path id="path216" class="cls-1" d="M.8,41.7h0"/>
      <path id="path218" class="cls-1" d="M1.2,41.2h0"/>
      <path id="path220" class="cls-1" d="M.8,41.8h0"/>
      <path id="path222" class="cls-1" d="M.5,42h0"/>
      <path id="path224" class="cls-1" d="M1,42.1H1"/>
      <path id="path226" class="cls-1" d="M1,42.8H1"/>
      <path id="path228" class="cls-1" d="M.9,40.4h.2s-.1.1-.1,0H.9"/>
      <path id="path230" class="cls-1" d="M1,40.1H1"/>
      <path id="path232" class="cls-1" d="M1.9,39.9h0"/>
      <path id="path234" class="cls-1" d="M1.3,41.9h0"/>
      <path id="path236" class="cls-1" d="M1,42.2H1"/>
      <path id="path238" class="cls-1" d="M.7,42.2h0"/>
      <path id="path240" class="cls-1" d="M1.3,41.8h0Z"/>
      <path id="path242" class="cls-1" d="M1.4,40.3h0Z"/>
      <path id="path244" class="cls-2" d="M50,28.8V49.6H42.3V7.4h8.4l21,30.7s-.1-4.9-.1-9.9V7.4h7.7V49.6h-8L49.9,18.4s.1,5.4.1,10.4"/>
      <path id="path246" class="cls-2" d="M108.1,42.2a5.9,5.9,0,0,0,2.3-5,5.9,5.9,0,0,0-2.7-5.1c-1.5-1.1-3.2-1.3-5.6-1.3H95.6V43.3h6.8C104.4,43.3,106.4,43.3,108.1,42.2Zm-2.6-18.3c1.5-.9,2.4-2.3,2.4-4.9s-2.9-5.4-7-5.4H95.6V25h4.9A8.8,8.8,0,0,0,105.5,23.9ZM101.1,7.4A21.9,21.9,0,0,1,110.5,9c3.3,1.6,5.4,4.2,5.4,9a10,10,0,0,1-6.5,9.2v.2c5.4,1.2,9.1,4.7,9.1,10.1a11.3,11.3,0,0,1-5.1,9.8c-2.6,1.6-6.3,2.3-10.4,2.3H87.6V7.4h13.5"/>
      <path id="path248" class="cls-2" d="M120.3,13.8V7.4h31.1v6.4H139.8V49.6h-7.9V13.8H120.3"/>
      <path id="path250" class="cls-2" d="M174.4,50.3c-12.4,0-21.9-8.4-21.9-21.8s9.6-21.8,21.9-21.8c8.2,0,13,3.5,14.7,5.3l-2.8,6.4c-1.2-1.6-6-4.8-12-4.8s-13.6,4.8-13.6,14.8,5.7,15.1,14.1,15.1a16.2,16.2,0,0,0,12.1-5.2l2.8,6c-2.4,2.6-7,6-15.3,6"/>
      <path id="path252" class="cls-2" d="M213.2,17.1l-5.6-7.7v7.7h-1.4V7.4h1.5l5.5,7.6V7.4h1.3v9.7h-1.3"/>
      <path id="path254" class="cls-2" d="M219.4,11.3a2.1,2.1,0,0,0-2,1.9h3.9A1.8,1.8,0,0,0,219.4,11.3Zm3.2,2.8h-5.2a2.1,2.1,0,0,0,2.2,2.1,3.9,3.9,0,0,0,2.2-.8l.5.8c0,.1-.9,1-2.9,1a3.2,3.2,0,0,1-3.3-3.5,3.2,3.2,0,0,1,3.3-3.4,3,3,0,0,1,3.2,3.2v.6"/>
      <path id="path256" class="cls-2" d="M226,17.2c-1.7,0-1.8-1.3-1.8-2.6V11.5h-1V10.4h1v-2h1.4v2h1.6v1.1h-1.6v3a4.5,4.5,0,0,0,.1,1.3.8.8,0,0,0,.7.3,1.4,1.4,0,0,0,.7-.2V17a2.3,2.3,0,0,1-1.2.2"/>
      <path id="path258" class="cls-2" d="M232.9,17.1V13.3c0-1-.2-1.9-1.4-1.9s-1.8,1-1.8,2.4v3.3h-1.3V7.4h1.3v4.1h.1a2.2,2.2,0,0,1,2-1.2c2,0,2.4,1.2,2.4,2.8v4h-1.3"/>
      <path id="path260" class="cls-2" d="M238.9,11.3a1.9,1.9,0,0,0-1.9,1.9h3.9A1.9,1.9,0,0,0,238.9,11.3Zm3.2,2.8H237a2,2,0,0,0,2.1,2.1,3.3,3.3,0,0,0,2.2-.8l.6.8a4.1,4.1,0,0,1-3,1,3.2,3.2,0,0,1-3.3-3.5,3.3,3.3,0,0,1,3.4-3.4,3.1,3.1,0,0,1,3.2,3.2,3.5,3.5,0,0,1-.1.6"/>
      <path id="path262" class="cls-2" d="M247.1,11.6h-.7c-1.3,0-1.6,1.3-1.6,2.3v3.3h-1.3V10.4h1.3v1h.1a1.7,1.7,0,0,1,1.6-1.1h.7v1.2"/>
      <path id="path264" class="cls-2" d="M248.3,17.1V7.4h1.3v9.7h-1.3"/>
      <path id="path266" class="cls-2" d="M253.8,14c-1,0-1.5.5-1.5,1.1s.5,1.2,1.4,1.2a1.9,1.9,0,0,0,1.7-1V13.9Zm1.6,3.1v-.9a2.6,2.6,0,0,1-2.1,1,2.1,2.1,0,0,1-2.3-2c0-1.3,1.1-2,2.6-2.1h1.8v-.3c0-1-.7-1.5-1.7-1.5a3.6,3.6,0,0,0-2,.6l-.4-.9a5,5,0,0,1,2.5-.7c2,0,2.9,1,2.9,2.9v3.9h-1.3"/>
      <path id="path268" class="cls-2" d="M262.9,17.1V13.4c0-1.2-.2-2-1.4-2s-1.7,1-1.7,2.3v3.4h-1.3V10.4h1.3v1.1h.1a2.1,2.1,0,0,1,2-1.2c1.9,0,2.4,1.2,2.4,2.8v4h-1.4"/>
      <path id="path270" class="cls-2" d="M269.1,11.4a2.1,2.1,0,0,0-2.1,2.3,2.2,2.2,0,1,0,4.3,0A2.1,2.1,0,0,0,269.1,11.4Zm2.2,5.7V16h-.1a2.6,2.6,0,0,1-2.3,1.2,3.3,3.3,0,0,1-3.3-3.5,3.2,3.2,0,0,1,3.3-3.4,3,3,0,0,1,2.3,1.1h0v-4h1.4v9.7h-1.3"/>
      <path id="path272" class="cls-2" d="M276.5,17.2a3.4,3.4,0,0,1-2.7-1.1l.7-.8a2.8,2.8,0,0,0,2,.9c.6,0,1.2-.2,1.2-.9s-1-1-1.5-1.1-1.9-.7-1.9-2a2,2,0,0,1,2.2-1.9,2.8,2.8,0,0,1,2.3.9l-.6.8a2.4,2.4,0,0,0-1.7-.7c-.6,0-1,.2-1,.8s.6.8,1.3,1l.9.3a1.9,1.9,0,0,1,1.3,1.7c0,1.5-1.3,2.1-2.5,2.1"/>
      <path id="path274" class="cls-2" d="M287.8,12.9a3.2,3.2,0,0,0-1.7-.3h-1.5V16h1.5a2.5,2.5,0,0,0,1.7-.4,1.4,1.4,0,0,0,.7-1.3A1.6,1.6,0,0,0,287.8,12.9Zm-1.9-4.4h-1.3v3h1.2a2.8,2.8,0,0,0,1.4-.2,1.7,1.7,0,0,0,.7-1.3c0-1.3-1-1.5-2-1.5Zm3,8a4.4,4.4,0,0,1-2.5.6h-3.1V7.4h2.6a5.3,5.3,0,0,1,2.3.4,2.2,2.2,0,0,1,1,2,2.1,2.1,0,0,1-1.4,2.1h0a2.3,2.3,0,0,1,2.1,2.3,2.7,2.7,0,0,1-1,2.2"/>
      <path id="path276" class="cls-2" d="M294.5,11.4a2.1,2.1,0,0,0-2.2,2.3,2.2,2.2,0,0,0,2.2,2.4,2.2,2.2,0,0,0,2.2-2.4A2.2,2.2,0,0,0,294.5,11.4Zm0,5.8a3.4,3.4,0,0,1-3.6-3.4,3.4,3.4,0,0,1,3.6-3.5,3.4,3.4,0,0,1,3.5,3.5,3.3,3.3,0,0,1-3.5,3.4"/>
      <path id="path278" class="cls-2" d="M301.7,14c-1.1,0-1.5.5-1.5,1.1s.5,1.2,1.4,1.2a2.1,2.1,0,0,0,1.7-1V13.9Zm1.6,3.1v-.9a2.7,2.7,0,0,1-2.1,1,2,2,0,0,1-2.3-2c0-1.3,1-2,2.6-2.1h1.8v-.3c0-1-.7-1.5-1.7-1.5a3.3,3.3,0,0,0-2,.6l-.4-.9a5,5,0,0,1,2.5-.7c2,0,2.9,1,2.9,2.9v3.9h-1.3"/>
      <path id="path280" class="cls-2" d="M310,11.6h-.8c-1.2,0-1.5,1.3-1.5,2.3v3.3h-1.3V10.4h1.3v1h0a2,2,0,0,1,1.7-1.1h.7v1.2"/>
      <path id="path282" class="cls-2" d="M314.1,11.4a2.1,2.1,0,0,0-2.2,2.3,2.2,2.2,0,1,0,4.3,0A2.1,2.1,0,0,0,314.1,11.4Zm2.1,5.7V16h0a2.9,2.9,0,0,1-2.4,1.2,3.3,3.3,0,0,1-3.3-3.5,3.2,3.2,0,0,1,3.3-3.4,2.8,2.8,0,0,1,2.3,1.1h0v-4h1.4v9.7h-1.3"/>
      <path id="path284" class="cls-2" d="M209.2,27.6A2.2,2.2,0,0,0,207,30a2.1,2.1,0,0,0,2.2,2.3,2.2,2.2,0,0,0,2.2-2.3A2.2,2.2,0,0,0,209.2,27.6Zm0,5.9a3.5,3.5,0,1,1,0-7,3.5,3.5,0,0,1,0,7"/>
      <path id="path286" class="cls-2" d="M217.5,24.6h-.8c-.8,0-1,.6-1,1.4v.7h1.6v1.1h-1.6v5.6h-1.3V27.7h-1V26.6h1V26a2.6,2.6,0,0,1,.4-1.8,2,2,0,0,1,1.6-.7h1.2v1"/>
      <path id="path288" class="cls-2" d="M224.2,24.7v8.6h-1.4V24.7h-2.7V23.6h6.8v1.1h-2.7"/>
      <path id="path290" class="cls-2" d="M229.8,27.6a2.2,2.2,0,0,0-2.2,2.4,2.2,2.2,0,1,0,4.4,0A2.2,2.2,0,0,0,229.8,27.6Zm0,5.9a3.5,3.5,0,1,1,3.5-3.5,3.4,3.4,0,0,1-3.5,3.5"/>
      <path id="path292" class="cls-2" d="M239.1,33.3v-.9a2.5,2.5,0,0,1-2.1,1.1c-1.8,0-2.3-1.2-2.3-2.9v-4H236v4c0,.9.2,1.7,1.4,1.7s1.7-1,1.7-2.1V26.6h1.3v6.7h-1.3"/>
      <path id="path294" class="cls-2" d="M245.9,27.9h0l-.7-.2c-1.3,0-1.6,1.3-1.6,2.3v3.3h-1.3V26.6h1.3v1.1h.1a1.7,1.7,0,0,1,1.6-1.2h.7v1.3"/>
      <path id="path296" class="cls-2" d="M247.1,33.3V26.6h1.3v6.7Zm.6-8a.8.8,0,0,1-.8-.9.8.8,0,0,1,.8-.8.8.8,0,0,1,.9.8.8.8,0,0,1-.9.9"/>
      <path id="path298" class="cls-2" d="M252.3,33.5a3.4,3.4,0,0,1-2.6-1.2l.6-.8a3,3,0,0,0,2,.9c.6,0,1.3-.2,1.3-.9s-1.1-1-1.5-1.1-2-.7-2-2a2.1,2.1,0,0,1,2.3-1.9,2.7,2.7,0,0,1,2.2.9l-.5.8a2.6,2.6,0,0,0-1.7-.7c-.7,0-1.1.3-1.1.8s.7.8,1.3,1l.9.3a1.9,1.9,0,0,1,1.3,1.8,2.2,2.2,0,0,1-2.5,2.1"/>
      <path id="path300" class="cls-2" d="M264.5,33.3V29.4c0-.8-.1-1.8-1.2-1.8s-1.6,1-1.6,2.2v3.5h-1.4V29.4c0-1-.2-1.8-1.2-1.8s-1.6,1-1.6,2.2v3.5h-1.3V26.6h1.3v1.1h0a2.5,2.5,0,0,1,2-1.2,2.1,2.1,0,0,1,2,1.3,2.2,2.2,0,0,1,2.1-1.3c1.8,0,2.2,1.3,2.2,2.8v4h-1.3"/>
      <path id="path302" class="cls-2" d="M273.6,24.4a1.2,1.2,0,0,0-1.2,1.2,1.7,1.7,0,0,0,.5,1.2l.4.4a2.1,2.1,0,0,0,1.4-1.7,1,1,0,0,0-1.1-1.1Zm-1.1,4.3a2.4,2.4,0,0,0-1.5,2,1.7,1.7,0,0,0,1.8,1.7,3.4,3.4,0,0,0,2.4-1.3l-2.3-2.6Zm4.6,4.6-1.2-1.4a4.4,4.4,0,0,1-3.3,1.6,2.7,2.7,0,0,1-3-2.7c0-1.6,1.2-2.4,2.6-3.1a3.1,3.1,0,0,1-1.1-2.2c0-1.2,1-2,2.5-2s2.4.8,2.4,2-.9,1.9-2,2.5l1.9,2.2a9.6,9.6,0,0,0,1.2-2l1.1.5a17.6,17.6,0,0,1-1.5,2.3l2,2.2h-1.6"/>
      <path id="path304" class="cls-2" d="M210.6,49.7a4.8,4.8,0,0,1-4.9-5,5,5,0,0,1,8.4-3.7l-.6,1.1a3.7,3.7,0,0,0-2.8-1.2,3.5,3.5,0,0,0-3.6,3.8,3.5,3.5,0,0,0,3.6,3.8,3.7,3.7,0,0,0,2.9-1.2l.6,1a4.5,4.5,0,0,1-3.6,1.4"/>
      <path id="path306" class="cls-2" d="M218.5,43.8a2.2,2.2,0,0,0-2.2,2.4,2.1,2.1,0,0,0,2.2,2.3,2.1,2.1,0,0,0,2.1-2.3A2.2,2.2,0,0,0,218.5,43.8Zm0,5.9a3.4,3.4,0,0,1-3.6-3.5,3.5,3.5,0,0,1,3.6-3.5,3.4,3.4,0,0,1,3.5,3.5,3.4,3.4,0,0,1-3.5,3.5"/>
      <path id="path308" class="cls-2" d="M227.9,49.5V45.8c0-1.1-.2-2-1.4-2s-1.7,1.1-1.7,2.4v3.3h-1.4V42.9h1.4v1h0a2.5,2.5,0,0,1,2-1.2c1.9,0,2.4,1.3,2.4,2.9v3.9h-1.3"/>
      <path id="path310" class="cls-2" d="M233.9,49.5h-1.2l-2.8-6.6h1.4l2,5,2-5h1.4l-2.8,6.6"/>
      <path id="path312" class="cls-2" d="M240.5,43.7a1.9,1.9,0,0,0-2,1.9h3.9A1.9,1.9,0,0,0,240.5,43.7Zm3.1,2.8h-5.1a2,2,0,0,0,2.1,2.1,3.5,3.5,0,0,0,2.2-.7l.6.7a3.6,3.6,0,0,1-2.9,1.1,3.3,3.3,0,0,1-3.4-3.5,3.4,3.4,0,0,1,3.4-3.5,3.1,3.1,0,0,1,3.2,3.2,2.2,2.2,0,0,1-.1.6"/>
      <path id="path314" class="cls-2" d="M249.5,49.5V45.8c0-1.1-.2-2-1.4-2s-1.7,1.1-1.7,2.4v3.3H245V42.9h1.4v1h0a2.3,2.3,0,0,1,2-1.2c1.9,0,2.4,1.3,2.4,2.9v3.9h-1.3"/>
      <path id="path316" class="cls-2" d="M254.7,49.7c-1.7,0-1.8-1.4-1.8-2.7V44h-1V42.9h1v-2h1.4v2h1.6V44h-1.6v3a4.1,4.1,0,0,0,.1,1.2c.1.2.3.3.7.3h.7v1.1l-1.2.2"/>
      <path id="path318" class="cls-2" d="M257.1,49.5V42.9h1.3v6.6Zm.6-8a.8.8,0,0,1-.8-.8.8.8,0,0,1,.8-.9.8.8,0,0,1,.9.9.8.8,0,0,1-.9.8"/>
      <path id="path320" class="cls-2" d="M263.4,43.8a2.3,2.3,0,0,0-2.2,2.4,2.2,2.2,0,0,0,2.2,2.3,2.1,2.1,0,0,0,2.2-2.3A2.2,2.2,0,0,0,263.4,43.8Zm0,5.9a3.4,3.4,0,0,1-3.5-3.5,3.4,3.4,0,0,1,3.5-3.5,3.5,3.5,0,0,1,3.6,3.5,3.4,3.4,0,0,1-3.6,3.5"/>
      <path id="path322" class="cls-2" d="M272.8,49.5V45.8c0-1.1-.2-2-1.4-2s-1.7,1.1-1.7,2.4v3.3h-1.3V42.9h1.3v1h.1a2.2,2.2,0,0,1,2-1.2c1.9,0,2.4,1.3,2.4,2.9v3.9h-1.4"/>
      <path id="path324" class="cls-2" d="M277.9,49.7a3.4,3.4,0,0,1-2.6-1.2l.7-.8a3,3,0,0,0,2,1c.6,0,1.2-.3,1.2-1s-1-.9-1.5-1.1-1.9-.7-1.9-2a2,2,0,0,1,2.2-1.9,3.1,3.1,0,0,1,2.3.9l-.6.8a2.4,2.4,0,0,0-1.7-.7c-.6,0-1,.3-1,.9s.6.7,1.3,1l.9.3a1.8,1.8,0,0,1,1.3,1.7c0,1.4-1.3,2.1-2.6,2.1"/>
    </g>
  </g>
</svg>
